Coordinates
version=1
nRows=18
nColumns=22
inDegrees=yes

Units are S.I. units (second, meters, Newtons, ...)
If the header above contains a line with 'inDegrees', this indicates whether rotational values are in degrees (yes) or radians (no).

endheader
time	pelvis_tilt	pelvis_list	pelvis_rotation	pelvis_tx	pelvis_ty	pelvis_tz	hip_flexion_r	hip_adduction_r	hip_rotation_r	knee_angle_r	ankle_angle_r	subtalar_angle_r	hip_flexion_l	hip_adduction_l	hip_rotation_l	knee_angle_l	ankle_angle_l	subtalar_angle_l	lumbar_extension	lumbar_bending	lumbar_rotation
      3.88000000	    -10.89877019	      1.18241431	     -0.07447341	     -0.26946665	      0.97322154	      0.39988790	     17.98089872	     -3.68025893	     -3.43239372	    -57.44850060	      1.66605962	      4.28076240	     25.84839463	      4.70434816	     -2.73226619	    -21.36147912	     13.44629202	     -3.09672689	      2.84458138	     -1.28797030	      4.40474064
      3.89000000	    -10.76453297	      1.40184657	     -0.14770596	     -0.26459823	      0.97345625	      0.39892085	     18.61873259	     -4.10444898	     -3.37262239	    -58.54597261	      1.84346834	      3.98809693	     25.34374919	      5.00311274	     -2.72936645	    -21.26711239	     13.72939006	     -3.41490375	      2.75828315	     -1.50330163	      4.34038649
      3.90000000	    -10.62404906	      1.59293116	     -0.21792759	     -0.25974336	      0.97374124	      0.39798805	     19.22380627	     -4.49513157	     -3.33477006	    -59.45558815	      2.32830098	      3.59545991	     24.81485759	      5.27581037	     -2.71234586	    -21.13761845	     14.03419445	     -3.70422322	      2.66998482	     -1.68185622	      4.21542160
      3.91000000	    -10.49874486	      1.76638388	     -0.28487926	     -0.25496983	      0.97403228	      0.39705777	     19.83305981	     -4.87571287	     -3.32760093	    -60.18699038	      3.13301123	      3.26498603	     24.30869914	      5.53669784	     -2.66331167	    -21.01345245	     14.28986594	     -3.84192520	      2.59503615	     -1.83434176	      4.08613450
      3.92000000	    -10.36039398	      1.92103635	     -0.36531530	     -0.25023775	      0.97437752	      0.39617916	     20.41059335	     -5.23288425	     -3.33734964	    -60.72109396	      4.13776738	      2.76052871	     23.78024502	      5.77374338	     -2.61601618	    -20.86950640	     14.55059191	     -4.04148676	      2.50367928	     -1.96119489	      3.95299264
      3.93000000	    -10.20182603	      2.01499780	     -0.45818106	     -0.24552297	      0.97480498	      0.39537697	     20.93036315	     -5.51718286	     -3.38518210	    -61.02645743	      5.25477434	      1.96847225	     23.21627050	      5.94434225	     -2.54510222	    -20.70001769	     14.85080206	     -4.32963680	      2.39005991	     -2.01725690	      3.83025115
      3.94000000	    -10.07760933	      2.10116217	     -0.54145033	     -0.24093552	      0.97518790	      0.39461136	     21.47756322	     -5.78345060	     -3.43817687	    -61.15509662	      6.52075897	      1.41255716	     22.71090254	      6.10716044	     -2.46504952	    -20.55597937	     15.09417127	     -4.48288986	      2.30473104	     -2.06660125	      3.67793968
      3.95000000	     -9.95544817	      2.14780356	     -0.62265888	     -0.23640924	      0.97558561	      0.39390472	     21.99734681	     -5.99679064	     -3.52264540	    -61.08023325	      7.81837122	      0.88294643	     22.22094972	      6.22149765	     -2.40980068	    -20.42918025	     15.34287226	     -4.64106249	      2.21674198	     -2.07165611	      3.51011896
      3.96000000	     -9.84214464	      2.16444239	     -0.69990956	     -0.23199424	      0.97596320	      0.39326938	     22.50854969	     -6.15604796	     -3.61804383	    -60.82816419	      9.10706443	      0.44963278	     21.76998983	      6.29603618	     -2.38194576	    -20.34436613	     15.59811609	     -4.77740013	      2.12510822	     -2.04649843	      3.31944763
      3.97000000	     -9.76849135	      2.12908276	     -0.80306076	     -0.22768564	      0.97627455	      0.39275424	     23.05311417	     -6.21596973	     -3.69121388	    -60.41451665	     10.35699780	      0.19342391	     21.38282898	      6.30076550	     -2.35488536	    -20.29354670	     15.86610632	     -4.83709940	      2.07289493	     -1.96397500	      3.17714467
      3.98000000	     -9.63261716	      2.12385590	     -0.87665187	     -0.22337286	      0.97668354	      0.39223467	     23.49966500	     -6.31007720	     -3.81843984	    -59.83987841	     11.51710217	     -0.35718133	     20.91271052	      6.34660426	     -2.31255933	    -20.20489364	     16.09070931	     -5.02547028	      1.94423950	     -1.92407079	      2.96024840
      3.99000000	     -9.54843105	      2.07605310	     -0.96265435	     -0.21919193	      0.97697887	      0.39181532	     24.00003115	     -6.31336641	     -3.92575753	    -59.14228051	     12.60907982	     -0.77255409	     20.53993248	      6.33110676	     -2.31017355	    -20.18367968	     16.34397655	     -5.11960741	      1.86203902	     -1.83805068	      2.77184273
      4.00000000	     -9.47742385	      2.02379509	     -1.04543182	     -0.21507940	      0.97722062	      0.39144749	     24.51058072	     -6.29073052	     -4.04472880	    -58.33957887	     13.61806909	     -1.15757617	     20.19725094	      6.30300003	     -2.33575852	    -20.18292926	     16.59688225	     -5.18733028	      1.78743485	     -1.75037588	      2.58345412
      4.01000000	     -9.41041072	      1.95699791	     -1.13563997	     -0.21104232	      0.97744169	      0.39116772	     25.01866262	     -6.21185002	     -4.14398508	    -57.43356013	     14.51101078	     -1.62878474	     19.86375835	      6.25542254	     -2.33338513	    -20.18367957	     16.83436474	     -5.25815819	      1.70817278	     -1.65248228	      2.40102100
      4.02000000	     -9.36211685	      1.89092320	     -1.22430054	     -0.20708165	      0.97759165	      0.39094092	     25.55021818	     -6.11384380	     -4.24675500	    -56.45784632	     15.31371068	     -2.00891698	     19.57191605	      6.19930636	     -2.36883699	    -20.21396319	     17.08111810	     -5.31117983	      1.64127914	     -1.55886878	      2.21852778
      4.03000000	     -9.32702200	      1.82238586	     -1.31582100	     -0.20319490	      0.97768923	      0.39077370	     26.09883427	     -5.98909544	     -4.34134524	    -55.42209236	     16.02161689	     -2.32107701	     19.30679254	      6.13487601	     -2.40927234	    -20.25807110	     17.32537762	     -5.35675384	      1.58005707	     -1.46634461	      2.04283934
      4.04000000	     -9.30387266	      1.78347840	     -1.42109202	     -0.19937001	      0.97773458	      0.39067406	     26.67417034	     -5.87125080	     -4.40521367	    -54.35440946	     16.68059899	     -2.45209106	     19.05676650	      6.09420188	     -2.46469541	    -20.29585915	     17.54301189	     -5.38131026	      1.52722519	     -1.41211609	      1.89612513
      4.05000000	     -9.28403811	      1.71830999	     -1.52188421	     -0.19561091	      0.97774391	      0.39062652	     27.24742615	     -5.71164801	     -4.48448508	    -53.24155565	     17.23875247	     -2.58105104	     18.82733693	      6.02195944	     -2.51701106	    -20.36214120	     17.79388018	     -5.41560587	      1.46764687	     -1.32926867	      1.73072762
